<?xml version="1.0" standalone="no"?>
<!DOCTYPE svg PUBLIC "-//W3C//DTD SVG 20010904//EN"
 "http://www.w3.org/TR/2001/REC-SVG-20010904/DTD/svg10.dtd">
<svg version="1.0" xmlns="http://www.w3.org/2000/svg"
 width="512.000000pt" height="512.000000pt" viewBox="0 0 512.000000 512.000000"
 preserveAspectRatio="xMidYMid meet">

<g transform="translate(0.000000,512.000000) scale(0.100000,-0.100000)"
fill="#000000" stroke="none">
<path d="M4711 5069 l-61 -51 6 -196 c28 -861 -274 -1679 -854 -2312 -75 -81
-79 -88 -85 -141 -7 -70 -23 -102 -85 -170 -72 -79 -85 -109 -80 -188 2 -48
10 -77 27 -105 l25 -39 235 239 c255 258 365 388 495 584 282 424 450 876 522
1405 44 322 7 981 -56 1015 -26 14 -21 16 -89 -41z"/>
<path d="M1668 2023 l-108 -108 185 -185 c164 -165 185 -190 185 -219 0 -17
-6 -44 -14 -59 -8 -15 -277 -289 -598 -608 -648 -647 -633 -634 -786 -656 -67
-10 -87 -8 -154 9 -43 10 -78 16 -78 12 0 -4 25 -35 56 -68 128 -139 319 -174
494 -90 59 29 130 97 795 760 l730 729 -295 295 c-162 162 -297 295 -300 295
-3 0 -53 -48 -112 -107z"/>
<path d="M4114 1800 l-27 -40 79 -136 c90 -158 109 -216 94 -287 -5 -26 -16
-60 -24 -76 -14 -26 -82 -93 -122 -119 -16 -10 -7 -12 57 -10 64 3 83 8 125
33 90 56 139 173 114 273 -10 40 -147 293 -202 375 -29 40 -62 36 -94 -13z"/>
</g>
</svg>
