<svg width="41" height="41" viewBox="0 0 41 41" fill="none" xmlns="http://www.w3.org/2000/svg">
<g clip-path="url(#clip0_506_2)">
<path d="M7.48635 0C3.33924 0 0 3.33924 0 7.48635V33.5137C0 37.6608 3.33924 41 7.48635 41H21.5929V24.9716H17.3546V19.2008H21.5929V14.2706C21.5929 10.3971 24.0972 6.8406 29.866 6.8406C32.2016 6.8406 33.9288 7.06483 33.9288 7.06483L33.793 12.4538C33.793 12.4538 32.0315 12.4371 30.1094 12.4371C28.0291 12.4371 27.6955 13.3956 27.6955 14.9869V19.2009H33.9583L33.6854 24.9716H27.6955V41.0001H33.5136C37.6608 41.0001 41 37.6608 41 33.5137V7.4864C41 3.33929 37.6608 4.1e-05 33.5136 4.1e-05H7.48631L7.48635 0Z" fill="white"/>
</g>
<defs>
<clipPath id="clip0_506_2">
<rect width="41" height="41" fill="white"/>
</clipPath>
</defs>
</svg>
