<svg width="41" height="41" viewBox="0 0 41 41" fill="none" xmlns="http://www.w3.org/2000/svg">
<path d="M20.4945 13.6638C16.7303 13.6638 13.6584 16.7357 13.6584 20.5C13.6584 24.2643 16.7303 27.3362 20.4945 27.3362C24.2587 27.3362 27.3306 24.2643 27.3306 20.5C27.3306 16.7357 24.2587 13.6638 20.4945 13.6638ZM40.9977 20.5C40.9977 17.6691 41.0234 14.8638 40.8644 12.038C40.7054 8.75582 39.9567 5.84285 37.5566 3.44273C35.1514 1.03747 32.2436 0.293848 28.9614 0.134865C26.1306 -0.024117 23.3253 0.00152543 20.4996 0.00152543C17.6688 0.00152543 14.8635 -0.024117 12.0378 0.134865C8.75565 0.293848 5.84274 1.0426 3.44266 3.44273C1.03746 5.84798 0.293842 8.75582 0.134863 12.038C-0.0241165 14.8689 0.0015254 17.6742 0.0015254 20.5C0.0015254 23.3258 -0.0241165 26.1362 0.134863 28.962C0.293842 32.2442 1.04258 35.1572 3.44266 37.5573C5.84787 39.9625 8.75565 40.7062 12.0378 40.8651C14.8687 41.0241 17.6739 40.9985 20.4996 40.9985C23.3305 40.9985 26.1357 41.0241 28.9614 40.8651C32.2436 40.7062 35.1565 39.9574 37.5566 37.5573C39.9618 35.152 40.7054 32.2442 40.8644 28.962C41.0285 26.1362 40.9977 23.3309 40.9977 20.5ZM20.4945 31.0185C14.6738 31.0185 9.9762 26.3208 9.9762 20.5C9.9762 14.6792 14.6738 9.98152 20.4945 9.98152C26.3152 9.98152 31.0128 14.6792 31.0128 20.5C31.0128 26.3208 26.3152 31.0185 20.4945 31.0185ZM31.4436 12.0073C30.0845 12.0073 28.9871 10.9098 28.9871 9.55073C28.9871 8.19168 30.0845 7.09419 31.4436 7.09419C32.8026 7.09419 33.9001 8.19168 33.9001 9.55073C33.9005 9.87344 33.8372 10.1931 33.7139 10.4913C33.5906 10.7895 33.4096 11.0605 33.1815 11.2887C32.9533 11.5169 32.6823 11.6978 32.3841 11.8211C32.0859 11.9444 31.7663 12.0077 31.4436 12.0073Z" fill="white"/>
</svg>
