<svg width="51" height="51" viewBox="0 0 51 51" fill="none" xmlns="http://www.w3.org/2000/svg">
<path fill-rule="evenodd" clip-rule="evenodd" d="M6.30684e-07 4.26082C6.30684e-07 3.13078 0.448907 2.04703 1.24797 1.24797C2.04702 0.448912 3.13078 5.68027e-06 4.26082 5.68027e-06H46.7345C47.2946 -0.000908962 47.8492 0.108642 48.3669 0.322388C48.8845 0.536133 49.3549 0.849874 49.7511 1.24565C50.1473 1.64142 50.4615 2.11146 50.6758 2.62885C50.8901 3.14623 51.0003 3.70081 51 4.26082V46.7345C51.0006 47.2947 50.8908 47.8494 50.6768 48.367C50.4628 48.8847 50.1488 49.355 49.7529 49.7512C49.3569 50.1474 48.8867 50.4616 48.3692 50.6759C47.8517 50.8902 47.297 51.0003 46.7369 51H4.26082C3.70108 51 3.14684 50.8897 2.62974 50.6754C2.11264 50.4612 1.64283 50.1471 1.24715 49.7512C0.851461 49.3553 0.53766 48.8853 0.323671 48.3681C0.109681 47.8509 -0.000303903 47.2966 6.30684e-07 46.7369V4.26082ZM20.1867 19.4449H27.0926V22.9129C28.0894 20.9193 30.6394 19.125 34.4714 19.125C41.8177 19.125 43.5586 23.096 43.5586 30.3821V43.8785H36.1242V32.0419C36.1242 27.8924 35.1274 25.551 32.5959 25.551C29.0839 25.551 27.6235 28.0755 27.6235 32.0419V43.8785H20.1867V19.4449ZM7.43673 43.561H14.8735V19.125H7.43673V43.5586V43.561ZM15.9375 11.1551C15.9515 11.7918 15.8382 12.425 15.6042 13.0173C15.3703 13.6097 15.0203 14.1493 14.5749 14.6046C14.1296 15.0599 13.5978 15.4216 13.0107 15.6686C12.4236 15.9156 11.7931 16.0428 11.1562 16.0428C10.5194 16.0428 9.88887 15.9156 9.30181 15.6686C8.71474 15.4216 8.18292 15.0599 7.73755 14.6046C7.29219 14.1493 6.94224 13.6097 6.70826 13.0173C6.47428 12.425 6.36098 11.7918 6.375 11.1551C6.40252 9.90526 6.91835 8.71588 7.81201 7.84169C8.70567 6.96749 9.90611 6.47797 11.1562 6.47797C12.4064 6.47797 13.6068 6.96749 14.5005 7.84169C15.3942 8.71588 15.91 9.90526 15.9375 11.1551V11.1551Z" fill="white"/>
</svg>
