<svg width="52" height="36" viewBox="0 0 52 36" fill="none" xmlns="http://www.w3.org/2000/svg">
<path d="M50.3158 5.77129C50.0269 4.69533 49.4605 3.71413 48.6732 2.92587C47.886 2.13761 46.9055 1.56994 45.8299 1.27969C41.8707 0.214844 26 0.214844 26 0.214844C26 0.214844 10.1293 0.214844 6.17012 1.27402C5.09406 1.56334 4.11307 2.13069 3.32566 2.91909C2.53825 3.7075 1.97214 4.6892 1.68418 5.76562C0.625 9.73047 0.625 18 0.625 18C0.625 18 0.625 26.2695 1.68418 30.2287C2.26758 32.415 3.98945 34.1369 6.17012 34.7203C10.1293 35.7852 26 35.7852 26 35.7852C26 35.7852 41.8707 35.7852 45.8299 34.7203C48.0162 34.1369 49.7324 32.415 50.3158 30.2287C51.375 26.2695 51.375 18 51.375 18C51.375 18 51.375 9.73047 50.3158 5.77129ZM20.959 25.5898V10.4102L34.0996 17.9434L20.959 25.5898Z" fill="white"/>
</svg>
